<?xml version="1.0" encoding="utf-8"?>
<!-- Generator: Adobe Illustrator 23.1.0, SVG Export Plug-In . SVG Version: 6.00 Build 0)  -->
<svg version="1.1" id="CAMPEACH" xmlns="http://www.w3.org/2000/svg" xmlns:xlink="http://www.w3.org/1999/xlink" x="0px" y="0px"
	 viewBox="0 0 1176.7 217.1" style="enable-background:new 0 0 1176.7 217.1;" xml:space="preserve">
<style type="text/css">
	.st0{fill:#E0EDD1;}
</style>
<g id="campeach">
	<path class="st0" d="M12.7,71.2c5.8-10.9,14.1-19.4,24.8-25.5c10.7-6.1,23-9.1,36.9-9.1c17.6,0,32.5,4.7,44.5,14.1
		s19.8,22.2,23.3,38.4H99.9c-2.5-5.3-6.1-9.4-10.5-12.2c-4.5-2.8-9.7-4.2-15.5-4.2c-9.1,0-16.3,3.2-21.8,9.7
		c-5.4,6.5-8.1,15.1-8.1,26c0,11,2.7,19.7,8.1,26.2c5.4,6.5,12.7,9.7,21.8,9.7c5.9,0,11.1-1.4,15.5-4.2c4.5-2.8,8-6.9,10.5-12.2
		h42.3c-3.5,16.2-11.2,29-23.3,38.4c-12,9.4-26.9,14.1-44.5,14.1c-13.9,0-26.2-3-36.9-9.1c-10.7-6.1-19-14.6-24.8-25.5
		C6.9,135,4,122.5,4,108.4C4,94.5,6.9,82.1,12.7,71.2z"/>
	<path class="st0" d="M250.3,156.4h-50.1l-7.6,23.1h-41.3l51.5-141.4h45.3l51.3,141.4h-41.5L250.3,156.4z M240.5,126.3l-15.2-45.7
		l-15,45.7H240.5z"/>
	<path class="st0" d="M477.3,38.1v141.4H438v-78l-26.7,78h-32.9l-26.9-78.6v78.6h-39.3V38.1h47.5l35.5,91.8L430,38.1H477.3z"/>
	<path class="st0" d="M605.5,108.6c-3.9,7-9.9,12.6-17.8,16.8c-8,4.2-17.7,6.3-29.2,6.3h-19.5v47.7h-39.3V38.1h58.8
		c11.4,0,21,2,29,6c8,4,13.9,9.6,17.9,16.6c4,7.1,6,15.2,6,24.5C611.5,93.7,609.5,101.5,605.5,108.6z M571.3,85.2
		c0-10.3-5.5-15.4-16.6-15.4h-15.6v30.7h15.6C565.8,100.4,571.3,95.3,571.3,85.2z"/>
	<path class="st0" d="M666.6,69.5v23.1h45.1v29.9h-45.1V148h51.1v31.5h-90.4V38.1h90.4v31.5H666.6z"/>
	<path class="st0" d="M826.6,156.4h-50.1l-7.6,23.1h-41.3l51.5-141.4h45.3l51.3,141.4h-41.5L826.6,156.4z M816.8,126.3l-15.2-45.7
		l-15,45.7H816.8z"/>
	<path class="st0" d="M892.5,71.2c5.8-10.9,14.1-19.4,24.8-25.5c10.7-6.1,23-9.1,36.9-9.1c17.6,0,32.5,4.7,44.5,14.1
		c12,9.4,19.8,22.2,23.3,38.4h-42.3c-2.5-5.3-6.1-9.4-10.5-12.2c-4.5-2.8-9.7-4.2-15.5-4.2c-9.1,0-16.3,3.2-21.8,9.7
		c-5.4,6.5-8.1,15.1-8.1,26c0,11,2.7,19.7,8.1,26.2c5.4,6.5,12.7,9.7,21.8,9.7c5.9,0,11.1-1.4,15.5-4.2c4.5-2.8,8-6.9,10.5-12.2
		h42.3c-3.5,16.2-11.2,29-23.3,38.4c-12,9.4-26.9,14.1-44.5,14.1c-13.9,0-26.2-3-36.9-9.1c-10.7-6.1-19-14.6-24.8-25.5
		c-5.8-10.9-8.7-23.4-8.7-37.4C883.8,94.5,886.7,82.1,892.5,71.2z"/>
	<path class="st0" d="M1167.1,38.1v141.4h-39.3v-56.8h-47.9v56.8h-39.3V38.1h39.3v53.1h47.9V38.1H1167.1z"/>
</g>
</svg>
