<?xml version="1.0" encoding="utf-8"?>
<!-- Generator: Adobe Illustrator 23.1.0, SVG Export Plug-In . SVG Version: 6.00 Build 0)  -->
<svg version="1.1" id="logo" xmlns="http://www.w3.org/2000/svg" xmlns:xlink="http://www.w3.org/1999/xlink" x="0px" y="0px"
	 viewBox="0 0 1176.7 217.1" style="enable-background:new 0 0 1176.7 217.1;" xml:space="preserve">
<style type="text/css">
	.st0{fill:#E2FFC0;}
	.st1{enable-background:new    ;}
	.st2{fill:#FFFFFF;}
</style>
<g>
	<path class="st0" d="M359.7,79.7c3.9,5.1,5.8,10.9,5.8,17.4c0,9.6-3.3,17.1-9.9,22.6c-6.6,5.4-15.9,8.2-27.8,8.2H272V15h54
		c11.5,0,20.6,2.6,27.1,7.7S363,35,363,44.2c0,6.6-1.7,12.1-5.2,16.6c-3.5,4.4-8.1,7.4-13.8,9C350.6,71.3,355.8,74.6,359.7,79.7z
		 M303.3,59.8h15.8c7.9,0,11.8-3.3,11.8-9.8c0-6.7-3.9-10.1-11.8-10.1h-15.8V59.8z M333.4,92.6c0-3.4-1-6-3.1-7.8s-5-2.7-8.9-2.7
		h-18.1v20.5h18.2C329.5,102.5,333.4,99.2,333.4,92.6z"/>
	<path class="st0" d="M410.7,103.8h35v24h-66.4V15h31.4V103.8z"/>
	<path class="st0" d="M482.8,121.4c-8.9-5-15.9-11.8-21-20.6C456.6,92,454,82.1,454,71s2.6-21,7.8-29.8c5.2-8.8,12.2-15.7,21-20.6
		c8.9-4.9,18.6-7.4,29.1-7.4c10.7,0,20.4,2.5,29.2,7.4s15.8,11.8,20.9,20.6c5.1,8.8,7.7,18.7,7.7,29.8s-2.6,21-7.7,29.8
		s-12.1,15.7-21,20.6c-8.9,5-18.6,7.4-29.1,7.4S491.7,126.4,482.8,121.4z M530.9,91.9c4.6-5.2,7-12.2,7-21c0-9-2.3-16-7-21.2
		c-4.6-5.2-11-7.8-19-7.8c-8.1,0-14.5,2.6-19,7.8C488.3,54.9,486,62,486,71c0,8.9,2.3,15.9,6.9,21c4.6,5.2,10.9,7.8,19,7.8
		S526.3,97.2,530.9,91.9z"/>
	<path class="st0" d="M655.8,52.1c-1.8-3-4.3-5.3-7.4-6.9c-3.1-1.6-6.9-2.4-11.1-2.4c-7.9,0-14.1,2.6-18.6,7.7s-6.8,12-6.8,20.6
		c0,9.7,2.4,17.1,7.3,22.2c4.9,5.1,11.9,7.6,21.2,7.6c11,0,18.8-5,23.5-14.9h-31.5V63.4H691v30.4c-2.5,6-6.1,11.6-10.8,16.8
		c-4.7,5.2-10.7,9.5-18,12.9s-15.5,5-24.8,5c-11.3,0-21.3-2.4-30-7.3s-15.4-11.6-20.2-20.3c-4.7-8.7-7.1-18.6-7.1-29.8
		c0-11.1,2.4-21,7.1-29.7c4.7-8.7,11.4-15.5,20.1-20.3c8.6-4.9,18.6-7.3,29.9-7.3c14.2,0,25.9,3.4,35.2,10.2s15,16.2,17.3,28h-33.9
		V52.1z"/>
	<path class="st0" d="M776.9,52.1c-1.8-3-4.3-5.3-7.4-6.9c-3.1-1.6-6.9-2.4-11.1-2.4c-7.9,0-14.1,2.6-18.6,7.7s-6.8,12-6.8,20.6
		c0,9.7,2.4,17.1,7.3,22.2c4.9,5.1,11.9,7.6,21.2,7.6c11,0,18.8-5,23.5-14.9h-31.5V63.4H812v30.4c-2.5,6-6.1,11.6-10.8,16.8
		c-4.7,5.2-10.7,9.5-18,12.9s-15.5,5-24.8,5c-11.3,0-21.3-2.4-30-7.3s-15.4-11.6-20.2-20.3c-4.7-8.7-7.1-18.6-7.1-29.8
		c0-11.1,2.4-21,7.1-29.7c4.7-8.7,11.4-15.5,20.1-20.3c8.6-4.9,18.6-7.3,29.9-7.3c14.2,0,25.9,3.4,35.2,10.2s15,16.2,17.3,28h-33.8
		V52.1z"/>
</g>
<g>
	<path class="st0" d="M269.8,156.5c2.6-4.9,6.3-8.7,11.1-11.4c4.8-2.7,10.3-4.1,16.6-4.1c7.9,0,14.6,2.1,20,6.3s8.9,10,10.4,17.2
		h-19c-1.1-2.4-2.7-4.2-4.7-5.5s-4.3-1.9-7-1.9c-4.1,0-7.3,1.5-9.8,4.4s-3.6,6.8-3.6,11.7s1.2,8.8,3.6,11.7s5.7,4.4,9.8,4.4
		c2.6,0,5-0.6,7-1.9c2-1.3,3.6-3.1,4.7-5.5h19c-1.6,7.3-5,13-10.4,17.2s-12.1,6.3-20,6.3c-6.2,0-11.8-1.4-16.6-4.1
		c-4.8-2.7-8.5-6.5-11.1-11.4s-3.9-10.5-3.9-16.8C265.9,167,267.2,161.4,269.8,156.5z"/>
	<path class="st0" d="M354.8,201.5c-5-2.8-8.9-6.7-11.8-11.6c-2.9-5-4.4-10.5-4.4-16.8c0-6.2,1.5-11.8,4.4-16.8
		c2.9-4.9,6.9-8.8,11.8-11.6c5-2.8,10.4-4.1,16.4-4.1s11.5,1.4,16.4,4.1c5,2.8,8.9,6.6,11.7,11.6c2.9,5,4.3,10.5,4.3,16.8
		c0,6.2-1.4,11.8-4.3,16.8s-6.8,8.8-11.8,11.6s-10.4,4.2-16.4,4.2S359.8,204.3,354.8,201.5z M381.8,184.9c2.6-2.9,3.9-6.9,3.9-11.8
		c0-5-1.3-9-3.9-11.9s-6.2-4.4-10.7-4.4c-4.6,0-8.1,1.5-10.7,4.4s-3.9,6.9-3.9,11.9s1.3,8.9,3.9,11.8c2.6,2.9,6.1,4.4,10.7,4.4
		C375.7,189.4,379.2,187.9,381.8,184.9z"/>
	<path class="st0" d="M490.2,141.7v63.5h-17.6v-35l-12,35h-14.8l-12.1-35.3v35.3h-17.6v-63.5h21.3l15.9,41.2l15.6-41.2H490.2z"/>
	<path class="st0" d="M578.8,141.7v63.5h-17.6v-35l-12,35h-14.8l-12.1-35.3v35.3h-17.6v-63.5H526l15.9,41.2l15.6-41.2H578.8z"/>
	<path class="st0" d="M611,155.8v10.4h20.2v13.4H611V191h23v14.1h-40.6v-63.5H634v14.1L611,155.8L611,155.8z"/>
	<path class="st0" d="M679.3,205.1l-12.6-23.4h-1.9v23.4h-17.6v-63.5H675c5.1,0,9.4,0.9,13,2.7c3.5,1.8,6.2,4.2,8,7.3
		s2.7,6.6,2.7,10.4c0,4.3-1.2,8.1-3.6,11.4c-2.4,3.3-5.8,5.6-10.4,7l14.3,24.8L679.3,205.1L679.3,205.1z M664.8,169.6h8.7
		c2.4,0,4.2-0.6,5.4-1.7c1.2-1.1,1.8-2.8,1.8-5c0-2-0.6-3.6-1.8-4.8s-3-1.8-5.4-1.8h-8.7V169.6z"/>
	<path class="st0" d="M713,156.5c2.6-4.9,6.3-8.7,11.1-11.4s10.3-4.1,16.6-4.1c7.9,0,14.6,2.1,20,6.3s8.9,10,10.4,17.2h-19
		c-1.1-2.4-2.7-4.2-4.7-5.5s-4.3-1.9-7-1.9c-4.1,0-7.3,1.5-9.8,4.4c-2.4,2.9-3.6,6.8-3.6,11.7s1.2,8.8,3.6,11.7
		c2.4,2.9,5.7,4.4,9.8,4.4c2.6,0,5-0.6,7-1.9c2-1.3,3.6-3.1,4.7-5.5h19c-1.6,7.3-5,13-10.4,17.2s-12.1,6.3-20,6.3
		c-6.2,0-11.8-1.4-16.6-4.1c-4.8-2.7-8.5-6.5-11.1-11.4s-3.9-10.5-3.9-16.8C709,167,710.3,161.4,713,156.5z"/>
	<path class="st0" d="M801.6,155.8v10.4h20.2v13.4h-20.2V191h23v14.1H784v-63.5h40.6v14.1L801.6,155.8L801.6,155.8z"/>
</g>
<path class="st0" d="M1113.4,176.4h-181c-6.6,0-12-5.4-12-12V52.7c0-6.6,5.4-12,12-12h181c6.6,0,12,5.4,12,12v111.7
	C1125.4,171,1120,176.4,1113.4,176.4z"/>
<g id="_x31_.0" class="st1">
	<path class="st2" d="M958.4,92.9V76.4h27.7v65.8h-18.4V92.9H958.4z"/>
	<path class="st2" d="M1001.6,140.3c-1.9-1.7-2.8-3.9-2.8-6.5c0-2.6,0.9-4.8,2.8-6.6c1.9-1.7,4.4-2.6,7.5-2.6c3.1,0,5.5,0.9,7.4,2.6
		c1.9,1.7,2.8,3.9,2.8,6.6c0,2.6-0.9,4.7-2.8,6.5s-4.4,2.6-7.4,2.6C1006,142.9,1003.5,142,1001.6,140.3z"/>
	<path class="st2" d="M1036.4,83.9c4.2-5.9,10.8-8.9,19.8-8.9s15.6,3,19.8,8.9c4.2,5.9,6.3,14.1,6.3,24.4c0,10.4-2.1,18.6-6.3,24.6
		c-4.2,5.9-10.8,8.9-19.9,8.9c-9.1,0-15.7-3-19.8-8.9c-4.2-5.9-6.3-14.1-6.3-24.6C1030.1,98,1032.2,89.9,1036.4,83.9z M1063.2,95.9
		c-1.1-2.8-3.5-4.3-7-4.3c-3.5,0-5.9,1.4-7,4.3c-1.1,2.9-1.7,7-1.7,12.4c0,5.5,0.6,9.7,1.7,12.6c1.1,2.9,3.5,4.3,7.1,4.3
		c3.6,0,6-1.4,7.1-4.3c1.1-2.8,1.7-7,1.7-12.6C1064.9,102.9,1064.4,98.8,1063.2,95.9z"/>
</g>
<g>
	<g>
		<path class="st0" d="M196.1,74l6.9,34.6H42.5L49.4,74H196.1 M215,16.3H30.5v23.1H215V16.3z M215,50.9H30.5L19,108.6v23.1h11.5
			v69.2h115.3v-69.2h46.1v69.2H215v-69.2h11.5v-23.1L215,50.9z M53.6,177.7v-46.1h69.2v46.1L53.6,177.7L53.6,177.7z"/>
	</g>
</g>
<rect x="861.8" y="16.3" class="st0" width="15.8" height="184.4"/>
</svg>
